<?xml version="1.0" encoding="UTF-8" standalone="no"?>
<!DOCTYPE svg PUBLIC "-//W3C//DTD SVG 1.1//EN"
 "http://www.w3.org/Graphics/SVG/1.1/DTD/svg11.dtd">
<!-- Generated by graphviz version 2.44.1 (20200629.0846)
 -->
<!-- Title: main Pages: 1 -->
<svg width="230pt" height="66pt"
 viewBox="0.00 0.00 230.00 66.00" xmlns="http://www.w3.org/2000/svg" xmlns:xlink="http://www.w3.org/1999/xlink">
<g id="graph0" class="graph" transform="scale(1 1) rotate(0) translate(4 62)">
<title>main</title>
<polygon fill="white" stroke="transparent" points="-4,4 -4,-62 226,-62 226,4 -4,4"/>
<!-- Node1 -->
<g id="node1" class="node">
<title>Node1</title>
<g id="a_node1"><a xlink:title="Main function.">
<polygon fill="#bfbfbf" stroke="black" points="0,-19.5 0,-38.5 38,-38.5 38,-19.5 0,-19.5"/>
<text text-anchor="middle" x="19" y="-26.5" font-family="Helvetica,sans-Serif" font-size="10.00">main</text>
</a>
</g>
</g>
<!-- Node2 -->
<g id="node2" class="node">
<title>Node2</title>
<g id="a_node2"><a xlink:href="../../d1/df3/hash__search_8cpp.html#a566eaf0ffafd50bc61e644561fd27001" target="_top" xlink:title=" ">
<polygon fill="white" stroke="black" points="183.5,-38.5 183.5,-57.5 212.5,-57.5 212.5,-38.5 183.5,-38.5"/>
<text text-anchor="middle" x="198" y="-45.5" font-family="Helvetica,sans-Serif" font-size="10.00">h</text>
</a>
</g>
</g>
<!-- Node1&#45;&gt;Node2 -->
<g id="edge1" class="edge">
<title>Node1&#45;&gt;Node2</title>
<path fill="none" stroke="midnightblue" d="M38.28,-30.96C70.45,-34.42 137.2,-41.58 173.03,-45.43"/>
<polygon fill="midnightblue" stroke="midnightblue" points="172.77,-48.92 183.09,-46.51 173.52,-41.96 172.77,-48.92"/>
</g>
<!-- Node3 -->
<g id="node3" class="node">
<title>Node3</title>
<g id="a_node3"><a xlink:href="../../dc/d9a/group___runge.html#gab997d56fac2ed0fbd6bd2aa456c8b8f9" target="_top" xlink:title="The rungeKutta finds value of y for a given x using step size h and initial value initial x at initia...">
<polygon fill="white" stroke="black" points="74,-0.5 74,-19.5 138,-19.5 138,-0.5 74,-0.5"/>
<text text-anchor="middle" x="106" y="-7.5" font-family="Helvetica,sans-Serif" font-size="10.00">rungeKutta</text>
</a>
</g>
</g>
<!-- Node1&#45;&gt;Node3 -->
<g id="edge2" class="edge">
<title>Node1&#45;&gt;Node3</title>
<path fill="none" stroke="midnightblue" d="M38.03,-24.97C45.68,-23.26 54.95,-21.19 64.12,-19.14"/>
<polygon fill="midnightblue" stroke="midnightblue" points="64.95,-22.54 73.94,-16.94 63.42,-15.71 64.95,-22.54"/>
</g>
<!-- Node3&#45;&gt;Node2 -->
<g id="edge4" class="edge">
<title>Node3&#45;&gt;Node2</title>
<path fill="none" stroke="midnightblue" d="M129.71,-19.59C143.16,-25.27 160.15,-32.44 173.7,-38.16"/>
<polygon fill="midnightblue" stroke="midnightblue" points="172.7,-41.54 183.27,-42.2 175.42,-35.09 172.7,-41.54"/>
</g>
<!-- Node4 -->
<g id="node4" class="node">
<title>Node4</title>
<g id="a_node4"><a xlink:href="../../dc/d9a/group___runge.html#ga862b740d92a50a203ebabbe33a88a418" target="_top" xlink:title="The change() function is used to return the updated iterative value corresponding to the given functi...">
<polygon fill="white" stroke="black" points="174,-0.5 174,-19.5 222,-19.5 222,-0.5 174,-0.5"/>
<text text-anchor="middle" x="198" y="-7.5" font-family="Helvetica,sans-Serif" font-size="10.00">change</text>
</a>
</g>
</g>
<!-- Node3&#45;&gt;Node4 -->
<g id="edge3" class="edge">
<title>Node3&#45;&gt;Node4</title>
<path fill="none" stroke="midnightblue" d="M138.23,-10C146.44,-10 155.32,-10 163.64,-10"/>
<polygon fill="midnightblue" stroke="midnightblue" points="163.78,-13.5 173.78,-10 163.78,-6.5 163.78,-13.5"/>
</g>
</g>
</svg>
