<?xml version="1.0" encoding="UTF-8" standalone="no"?>
<!DOCTYPE svg PUBLIC "-//W3C//DTD SVG 1.1//EN"
 "http://www.w3.org/Graphics/SVG/1.1/DTD/svg11.dtd">
<!-- Generated by graphviz version 2.44.1 (20200629.0846)
 -->
<!-- Title: main Pages: 1 -->
<svg width="420pt" height="78pt"
 viewBox="0.00 0.00 420.00 77.50" xmlns="http://www.w3.org/2000/svg" xmlns:xlink="http://www.w3.org/1999/xlink">
<g id="graph0" class="graph" transform="scale(1 1) rotate(0) translate(4 73.5)">
<title>main</title>
<polygon fill="white" stroke="transparent" points="-4,4 -4,-73.5 416,-73.5 416,4 -4,4"/>
<!-- Node1 -->
<g id="node1" class="node">
<title>Node1</title>
<g id="a_node1"><a xlink:title="Main function.">
<polygon fill="#bfbfbf" stroke="black" points="0,-22.5 0,-41.5 38,-41.5 38,-22.5 0,-22.5"/>
<text text-anchor="middle" x="19" y="-29.5" font-family="Helvetica,sans-Serif" font-size="10.00">main</text>
</a>
</g>
</g>
<!-- Node2 -->
<g id="node2" class="node">
<title>Node2</title>
<g id="a_node2"><a xlink:href="../../dc/d9a/group___runge.html#ga1440a7779ac56f47a3f355ce4a8c7da0" target="_top" xlink:title="the functions are for self test">
<polygon fill="white" stroke="black" points="74,-22.5 74,-41.5 112,-41.5 112,-22.5 74,-22.5"/>
<text text-anchor="middle" x="93" y="-29.5" font-family="Helvetica,sans-Serif" font-size="10.00">test1</text>
</a>
</g>
</g>
<!-- Node1&#45;&gt;Node2 -->
<g id="edge1" class="edge">
<title>Node1&#45;&gt;Node2</title>
<path fill="none" stroke="midnightblue" d="M38.17,-32C45.87,-32 55.03,-32 63.58,-32"/>
<polygon fill="midnightblue" stroke="midnightblue" points="63.59,-35.5 73.59,-32 63.59,-28.5 63.59,-35.5"/>
</g>
<!-- Node3 -->
<g id="node3" class="node">
<title>Node3</title>
<g id="a_node3"><a xlink:href="../../dc/d9a/group___runge.html#ga8b238477b5fef12cb566e311946d63e6" target="_top" xlink:title="The rungeKutta finds value of y for a given x using step size h and initial value initial x at initia...">
<polygon fill="white" stroke="black" points="148,-17 148,-47 269,-47 269,-17 148,-17"/>
<text text-anchor="start" x="156" y="-35" font-family="Helvetica,sans-Serif" font-size="10.00">numerical_methods::</text>
<text text-anchor="middle" x="208.5" y="-24" font-family="Helvetica,sans-Serif" font-size="10.00">runge_kutta::rungeKutta</text>
</a>
</g>
</g>
<!-- Node2&#45;&gt;Node3 -->
<g id="edge2" class="edge">
<title>Node2&#45;&gt;Node3</title>
<path fill="none" stroke="midnightblue" d="M112.24,-32C119.41,-32 128.15,-32 137.39,-32"/>
<polygon fill="midnightblue" stroke="midnightblue" points="137.56,-35.5 147.56,-32 137.56,-28.5 137.56,-35.5"/>
</g>
<!-- Node4 -->
<g id="node4" class="node">
<title>Node4</title>
<g id="a_node4"><a xlink:href="../../dc/d9a/group___runge.html#ga25508693d14e74395bcd94af190e062c" target="_top" xlink:title="The change() function is used to return the updated iterative value corresponding to the given functi...">
<polygon fill="white" stroke="black" points="305,-39 305,-69 412,-69 412,-39 305,-39"/>
<text text-anchor="start" x="313" y="-57" font-family="Helvetica,sans-Serif" font-size="10.00">numerical_methods::</text>
<text text-anchor="middle" x="358.5" y="-46" font-family="Helvetica,sans-Serif" font-size="10.00">runge_kutta::change</text>
</a>
</g>
</g>
<!-- Node3&#45;&gt;Node4 -->
<g id="edge3" class="edge">
<title>Node3&#45;&gt;Node4</title>
<path fill="none" stroke="midnightblue" d="M269.27,-40.88C277.6,-42.12 286.17,-43.4 294.56,-44.64"/>
<polygon fill="midnightblue" stroke="midnightblue" points="294.25,-48.14 304.66,-46.15 295.28,-41.21 294.25,-48.14"/>
</g>
<!-- Node5 -->
<g id="node5" class="node">
<title>Node5</title>
<g id="a_node5"><a xlink:href="../../d1/df3/hash__search_8cpp.html#a566eaf0ffafd50bc61e644561fd27001" target="_top" xlink:title=" ">
<polygon fill="white" stroke="black" points="344,-0.5 344,-19.5 373,-19.5 373,-0.5 344,-0.5"/>
<text text-anchor="middle" x="358.5" y="-7.5" font-family="Helvetica,sans-Serif" font-size="10.00">h</text>
</a>
</g>
</g>
<!-- Node3&#45;&gt;Node5 -->
<g id="edge4" class="edge">
<title>Node3&#45;&gt;Node5</title>
<path fill="none" stroke="midnightblue" d="M269.27,-23.12C291.78,-19.77 316.11,-16.15 333.51,-13.57"/>
<polygon fill="midnightblue" stroke="midnightblue" points="334.48,-16.96 343.85,-12.03 333.45,-10.04 334.48,-16.96"/>
</g>
</g>
</svg>
