<?xml version="1.0" encoding="UTF-8" standalone="no"?>
<!DOCTYPE svg PUBLIC "-//W3C//DTD SVG 1.1//EN"
 "http://www.w3.org/Graphics/SVG/1.1/DTD/svg11.dtd">
<!-- Generated by graphviz version 2.44.1 (20200629.0846)
 -->
<!-- Title: test1 Pages: 1 -->
<svg width="346pt" height="78pt"
 viewBox="0.00 0.00 346.00 77.50" xmlns="http://www.w3.org/2000/svg" xmlns:xlink="http://www.w3.org/1999/xlink">
<g id="graph0" class="graph" transform="scale(1 1) rotate(0) translate(4 73.5)">
<title>test1</title>
<polygon fill="white" stroke="transparent" points="-4,4 -4,-73.5 342,-73.5 342,4 -4,4"/>
<!-- Node1 -->
<g id="node1" class="node">
<title>Node1</title>
<g id="a_node1"><a xlink:title="the functions are for self test">
<polygon fill="#bfbfbf" stroke="black" points="0,-22.5 0,-41.5 38,-41.5 38,-22.5 0,-22.5"/>
<text text-anchor="middle" x="19" y="-29.5" font-family="Helvetica,sans-Serif" font-size="10.00">test1</text>
</a>
</g>
</g>
<!-- Node2 -->
<g id="node2" class="node">
<title>Node2</title>
<g id="a_node2"><a xlink:href="../../dc/d9a/group___runge.html#ga8b238477b5fef12cb566e311946d63e6" target="_top" xlink:title="The rungeKutta finds value of y for a given x using step size h and initial value initial x at initia...">
<polygon fill="white" stroke="black" points="74,-17 74,-47 195,-47 195,-17 74,-17"/>
<text text-anchor="start" x="82" y="-35" font-family="Helvetica,sans-Serif" font-size="10.00">numerical_methods::</text>
<text text-anchor="middle" x="134.5" y="-24" font-family="Helvetica,sans-Serif" font-size="10.00">runge_kutta::rungeKutta</text>
</a>
</g>
</g>
<!-- Node1&#45;&gt;Node2 -->
<g id="edge1" class="edge">
<title>Node1&#45;&gt;Node2</title>
<path fill="none" stroke="midnightblue" d="M38.24,-32C45.41,-32 54.15,-32 63.39,-32"/>
<polygon fill="midnightblue" stroke="midnightblue" points="63.56,-35.5 73.56,-32 63.56,-28.5 63.56,-35.5"/>
</g>
<!-- Node3 -->
<g id="node3" class="node">
<title>Node3</title>
<g id="a_node3"><a xlink:href="../../dc/d9a/group___runge.html#ga25508693d14e74395bcd94af190e062c" target="_top" xlink:title="The change() function is used to return the updated iterative value corresponding to the given functi...">
<polygon fill="white" stroke="black" points="231,-39 231,-69 338,-69 338,-39 231,-39"/>
<text text-anchor="start" x="239" y="-57" font-family="Helvetica,sans-Serif" font-size="10.00">numerical_methods::</text>
<text text-anchor="middle" x="284.5" y="-46" font-family="Helvetica,sans-Serif" font-size="10.00">runge_kutta::change</text>
</a>
</g>
</g>
<!-- Node2&#45;&gt;Node3 -->
<g id="edge2" class="edge">
<title>Node2&#45;&gt;Node3</title>
<path fill="none" stroke="midnightblue" d="M195.27,-40.88C203.6,-42.12 212.17,-43.4 220.56,-44.64"/>
<polygon fill="midnightblue" stroke="midnightblue" points="220.25,-48.14 230.66,-46.15 221.28,-41.21 220.25,-48.14"/>
</g>
<!-- Node4 -->
<g id="node4" class="node">
<title>Node4</title>
<g id="a_node4"><a xlink:href="../../d1/df3/hash__search_8cpp.html#a566eaf0ffafd50bc61e644561fd27001" target="_top" xlink:title=" ">
<polygon fill="white" stroke="black" points="270,-0.5 270,-19.5 299,-19.5 299,-0.5 270,-0.5"/>
<text text-anchor="middle" x="284.5" y="-7.5" font-family="Helvetica,sans-Serif" font-size="10.00">h</text>
</a>
</g>
</g>
<!-- Node2&#45;&gt;Node4 -->
<g id="edge3" class="edge">
<title>Node2&#45;&gt;Node4</title>
<path fill="none" stroke="midnightblue" d="M195.27,-23.12C217.78,-19.77 242.11,-16.15 259.51,-13.57"/>
<polygon fill="midnightblue" stroke="midnightblue" points="260.48,-16.96 269.85,-12.03 259.45,-10.04 260.48,-16.96"/>
</g>
</g>
</svg>
