<?xml version="1.0" encoding="UTF-8" standalone="no"?>
<!DOCTYPE svg PUBLIC "-//W3C//DTD SVG 1.1//EN"
 "http://www.w3.org/Graphics/SVG/1.1/DTD/svg11.dtd">
<!-- Generated by graphviz version 2.44.1 (20200629.0846)
 -->
<!-- Title: main Pages: 1 -->
<svg width="346pt" height="78pt"
 viewBox="0.00 0.00 346.00 77.50" xmlns="http://www.w3.org/2000/svg" xmlns:xlink="http://www.w3.org/1999/xlink">
<g id="graph0" class="graph" transform="scale(1 1) rotate(0) translate(4 73.5)">
<title>main</title>
<polygon fill="white" stroke="transparent" points="-4,4 -4,-73.5 342,-73.5 342,4 -4,4"/>
<!-- Node1 -->
<g id="node1" class="node">
<title>Node1</title>
<g id="a_node1"><a xlink:title="Main function.">
<polygon fill="#bfbfbf" stroke="black" points="0,-28 0,-47 38,-47 38,-28 0,-28"/>
<text text-anchor="middle" x="19" y="-35" font-family="Helvetica,sans-Serif" font-size="10.00">main</text>
</a>
</g>
</g>
<!-- Node2 -->
<g id="node2" class="node">
<title>Node2</title>
<g id="a_node2"><a xlink:href="../../d1/df3/hash__search_8cpp.html#a566eaf0ffafd50bc61e644561fd27001" target="_top" xlink:title=" ">
<polygon fill="white" stroke="black" points="270,-50 270,-69 299,-69 299,-50 270,-50"/>
<text text-anchor="middle" x="284.5" y="-57" font-family="Helvetica,sans-Serif" font-size="10.00">h</text>
</a>
</g>
</g>
<!-- Node1&#45;&gt;Node2 -->
<g id="edge1" class="edge">
<title>Node1&#45;&gt;Node2</title>
<path fill="none" stroke="midnightblue" d="M38.11,-39.01C84.47,-42.88 207.46,-53.15 259.6,-57.5"/>
<polygon fill="midnightblue" stroke="midnightblue" points="259.61,-61.02 269.87,-58.36 260.2,-54.04 259.61,-61.02"/>
</g>
<!-- Node3 -->
<g id="node3" class="node">
<title>Node3</title>
<g id="a_node3"><a xlink:href="../../dc/d9a/group___runge.html#ga8b238477b5fef12cb566e311946d63e6" target="_top" xlink:title="The rungeKutta finds value of y for a given x using step size h and initial value initial x at initia...">
<polygon fill="white" stroke="black" points="74,-0.5 74,-30.5 195,-30.5 195,-0.5 74,-0.5"/>
<text text-anchor="start" x="82" y="-18.5" font-family="Helvetica,sans-Serif" font-size="10.00">numerical_methods::</text>
<text text-anchor="middle" x="134.5" y="-7.5" font-family="Helvetica,sans-Serif" font-size="10.00">runge_kutta::rungeKutta</text>
</a>
</g>
</g>
<!-- Node1&#45;&gt;Node3 -->
<g id="edge2" class="edge">
<title>Node1&#45;&gt;Node3</title>
<path fill="none" stroke="midnightblue" d="M38.24,-33.97C45.49,-32.56 54.34,-30.84 63.68,-29.03"/>
<polygon fill="midnightblue" stroke="midnightblue" points="64.4,-32.46 73.56,-27.12 63.07,-25.59 64.4,-32.46"/>
</g>
<!-- Node3&#45;&gt;Node2 -->
<g id="edge4" class="edge">
<title>Node3&#45;&gt;Node2</title>
<path fill="none" stroke="midnightblue" d="M186.02,-30.52C211.15,-37.99 240.3,-46.66 260.14,-52.55"/>
<polygon fill="midnightblue" stroke="midnightblue" points="259.27,-55.95 269.85,-55.44 261.26,-49.24 259.27,-55.95"/>
</g>
<!-- Node4 -->
<g id="node4" class="node">
<title>Node4</title>
<g id="a_node4"><a xlink:href="../../dc/d9a/group___runge.html#ga25508693d14e74395bcd94af190e062c" target="_top" xlink:title="The change() function is used to return the updated iterative value corresponding to the given functi...">
<polygon fill="white" stroke="black" points="231,-0.5 231,-30.5 338,-30.5 338,-0.5 231,-0.5"/>
<text text-anchor="start" x="239" y="-18.5" font-family="Helvetica,sans-Serif" font-size="10.00">numerical_methods::</text>
<text text-anchor="middle" x="284.5" y="-7.5" font-family="Helvetica,sans-Serif" font-size="10.00">runge_kutta::change</text>
</a>
</g>
</g>
<!-- Node3&#45;&gt;Node4 -->
<g id="edge3" class="edge">
<title>Node3&#45;&gt;Node4</title>
<path fill="none" stroke="midnightblue" d="M195.27,-15.5C203.6,-15.5 212.17,-15.5 220.56,-15.5"/>
<polygon fill="midnightblue" stroke="midnightblue" points="220.66,-19 230.66,-15.5 220.66,-12 220.66,-19"/>
</g>
</g>
</svg>
