<?xml version="1.0" encoding="UTF-8" standalone="no"?>
<!DOCTYPE svg PUBLIC "-//W3C//DTD SVG 1.1//EN"
 "http://www.w3.org/Graphics/SVG/1.1/DTD/svg11.dtd">
<!-- Generated by graphviz version 2.44.1 (20200629.0846)
 -->
<!-- Title: numerical_methods::runge_kutta::test1 Pages: 1 -->
<svg width="415pt" height="78pt"
 viewBox="0.00 0.00 415.00 77.50" xmlns="http://www.w3.org/2000/svg" xmlns:xlink="http://www.w3.org/1999/xlink">
<g id="graph0" class="graph" transform="scale(1 1) rotate(0) translate(4 73.5)">
<title>numerical_methods::runge_kutta::test1</title>
<polygon fill="white" stroke="transparent" points="-4,4 -4,-73.5 411,-73.5 411,4 -4,4"/>
<!-- Node1 -->
<g id="node1" class="node">
<title>Node1</title>
<g id="a_node1"><a xlink:title="the functions are for self test">
<polygon fill="#bfbfbf" stroke="black" points="0,-17 0,-47 107,-47 107,-17 0,-17"/>
<text text-anchor="start" x="8" y="-35" font-family="Helvetica,sans-Serif" font-size="10.00">numerical_methods::</text>
<text text-anchor="middle" x="53.5" y="-24" font-family="Helvetica,sans-Serif" font-size="10.00">runge_kutta::test1</text>
</a>
</g>
</g>
<!-- Node2 -->
<g id="node2" class="node">
<title>Node2</title>
<g id="a_node2"><a xlink:href="../../dc/d9a/group___runge.html#ga8b238477b5fef12cb566e311946d63e6" target="_top" xlink:title="The rungeKutta finds value of y for a given x using step size h and initial value initial x at initia...">
<polygon fill="white" stroke="black" points="143,-17 143,-47 264,-47 264,-17 143,-17"/>
<text text-anchor="start" x="151" y="-35" font-family="Helvetica,sans-Serif" font-size="10.00">numerical_methods::</text>
<text text-anchor="middle" x="203.5" y="-24" font-family="Helvetica,sans-Serif" font-size="10.00">runge_kutta::rungeKutta</text>
</a>
</g>
</g>
<!-- Node1&#45;&gt;Node2 -->
<g id="edge1" class="edge">
<title>Node1&#45;&gt;Node2</title>
<path fill="none" stroke="midnightblue" d="M107.1,-32C115.4,-32 124.09,-32 132.71,-32"/>
<polygon fill="midnightblue" stroke="midnightblue" points="132.76,-35.5 142.76,-32 132.76,-28.5 132.76,-35.5"/>
</g>
<!-- Node3 -->
<g id="node3" class="node">
<title>Node3</title>
<g id="a_node3"><a xlink:href="../../dc/d9a/group___runge.html#ga25508693d14e74395bcd94af190e062c" target="_top" xlink:title="The change() function is used to return the updated iterative value corresponding to the given functi...">
<polygon fill="white" stroke="black" points="300,-39 300,-69 407,-69 407,-39 300,-39"/>
<text text-anchor="start" x="308" y="-57" font-family="Helvetica,sans-Serif" font-size="10.00">numerical_methods::</text>
<text text-anchor="middle" x="353.5" y="-46" font-family="Helvetica,sans-Serif" font-size="10.00">runge_kutta::change</text>
</a>
</g>
</g>
<!-- Node2&#45;&gt;Node3 -->
<g id="edge2" class="edge">
<title>Node2&#45;&gt;Node3</title>
<path fill="none" stroke="midnightblue" d="M264.27,-40.88C272.6,-42.12 281.17,-43.4 289.56,-44.64"/>
<polygon fill="midnightblue" stroke="midnightblue" points="289.25,-48.14 299.66,-46.15 290.28,-41.21 289.25,-48.14"/>
</g>
<!-- Node4 -->
<g id="node4" class="node">
<title>Node4</title>
<g id="a_node4"><a xlink:href="../../d1/df3/hash__search_8cpp.html#a566eaf0ffafd50bc61e644561fd27001" target="_top" xlink:title=" ">
<polygon fill="white" stroke="black" points="339,-0.5 339,-19.5 368,-19.5 368,-0.5 339,-0.5"/>
<text text-anchor="middle" x="353.5" y="-7.5" font-family="Helvetica,sans-Serif" font-size="10.00">h</text>
</a>
</g>
</g>
<!-- Node2&#45;&gt;Node4 -->
<g id="edge3" class="edge">
<title>Node2&#45;&gt;Node4</title>
<path fill="none" stroke="midnightblue" d="M264.27,-23.12C286.78,-19.77 311.11,-16.15 328.51,-13.57"/>
<polygon fill="midnightblue" stroke="midnightblue" points="329.48,-16.96 338.85,-12.03 328.45,-10.04 329.48,-16.96"/>
</g>
</g>
</svg>
