<?xml version="1.0" encoding="UTF-8" standalone="no"?>
<!DOCTYPE svg PUBLIC "-//W3C//DTD SVG 1.1//EN"
 "http://www.w3.org/Graphics/SVG/1.1/DTD/svg11.dtd">
<!-- Generated by graphviz version 2.44.1 (20200629.0846)
 -->
<!-- Title: numerical_methods/rungekutta.cpp Pages: 1 -->
<svg width="177pt" height="84pt"
 viewBox="0.00 0.00 177.00 84.00" xmlns="http://www.w3.org/2000/svg" xmlns:xlink="http://www.w3.org/1999/xlink">
<g id="graph0" class="graph" transform="scale(1 1) rotate(0) translate(4 80)">
<title>numerical_methods/rungekutta.cpp</title>
<polygon fill="white" stroke="transparent" points="-4,4 -4,-80 173,-80 173,4 -4,4"/>
<!-- Node1 -->
<g id="node1" class="node">
<title>Node1</title>
<g id="a_node1"><a xlink:title="Runge Kutta method implementation">
<polygon fill="#bfbfbf" stroke="black" points="0,-56.5 0,-75.5 169,-75.5 169,-56.5 0,-56.5"/>
<text text-anchor="middle" x="84.5" y="-63.5" font-family="Helvetica,sans-Serif" font-size="10.00">numerical_methods/rungekutta.cpp</text>
</a>
</g>
</g>
<!-- Node2 -->
<g id="node2" class="node">
<title>Node2</title>
<g id="a_node2"><a xlink:title=" ">
<polygon fill="white" stroke="#bfbfbf" points="22.5,-0.5 22.5,-19.5 76.5,-19.5 76.5,-0.5 22.5,-0.5"/>
<text text-anchor="middle" x="49.5" y="-7.5" font-family="Helvetica,sans-Serif" font-size="10.00">iostream</text>
</a>
</g>
</g>
<!-- Node1&#45;&gt;Node2 -->
<g id="edge1" class="edge">
<title>Node1&#45;&gt;Node2</title>
<path fill="none" stroke="midnightblue" d="M78.72,-56.08C73.83,-48.53 66.67,-37.49 60.67,-28.23"/>
<polygon fill="midnightblue" stroke="midnightblue" points="63.55,-26.24 55.17,-19.75 57.67,-30.05 63.55,-26.24"/>
</g>
<!-- Node3 -->
<g id="node3" class="node">
<title>Node3</title>
<g id="a_node3"><a xlink:title=" ">
<polygon fill="white" stroke="#bfbfbf" points="95,-0.5 95,-19.5 144,-19.5 144,-0.5 95,-0.5"/>
<text text-anchor="middle" x="119.5" y="-7.5" font-family="Helvetica,sans-Serif" font-size="10.00">cassert</text>
</a>
</g>
</g>
<!-- Node1&#45;&gt;Node3 -->
<g id="edge2" class="edge">
<title>Node1&#45;&gt;Node3</title>
<path fill="none" stroke="midnightblue" d="M90.28,-56.08C95.17,-48.53 102.33,-37.49 108.33,-28.23"/>
<polygon fill="midnightblue" stroke="midnightblue" points="111.33,-30.05 113.83,-19.75 105.45,-26.24 111.33,-30.05"/>
</g>
</g>
</svg>
